<svg width="521" height="765" viewBox="0 0 521 765" fill="none" xmlns="http://www.w3.org/2000/svg">
<g id="phone" clip-path="url(#clip0_7_11)">
<rect width="521" height="765" fill="white"/>
<g id="phone_2" filter="url(#filter0_d_7_11)">
<rect x="82" y="61" width="370" height="566" rx="30" fill="white"/>
</g>
<g id="skeleton">
<circle id="Ellipse 1" cx="132" cy="117" r="19" fill="#D9D9D9"/>
<g id="material-symbols:menu">
<path id="Vector" d="M374.75 126.5V123.333H403.25V126.5H374.75ZM374.75 118.583V115.417H403.25V118.583H374.75ZM374.75 110.667V107.5H403.25V110.667H374.75Z" fill="#D9D9D9"/>
</g>
<rect id="Rectangle 1" x="113" y="170" width="116" height="24" rx="2" fill="#D9D9D9"/>
<rect id="Rectangle 4" x="113" y="202" width="154" height="24" rx="2" fill="#D9D9D9"/>
<rect id="Rectangle 7" x="184" y="255" width="154" height="36" rx="18" fill="#D9D9D9"/>
<rect id="Rectangle 5" x="273" y="202" width="67" height="24" rx="2" fill="#D9D9D9"/>
<rect id="Rectangle 6" x="348" y="202" width="60" height="24" rx="2" fill="#D9D9D9"/>
<rect id="Rectangle 2" x="235" y="170" width="84" height="24" rx="2" fill="#D9D9D9"/>
<rect id="Rectangle 3" x="324" y="170" width="84" height="24" rx="2" fill="#D9D9D9"/>
<path id="Vector_2" d="M132 339.143C132 335.392 133.475 331.795 136.101 329.142C138.726 326.49 142.287 325 146 325H230C233.713 325 237.274 326.49 239.899 329.142C242.525 331.795 244 335.392 244 339.143V409.857C244 413.608 242.525 417.205 239.899 419.858C237.274 422.51 233.713 424 230 424H146C142.287 424 138.726 422.51 136.101 419.858C133.475 417.205 132 413.608 132 409.857V339.143ZM139 402.786V409.857C139 411.733 139.737 413.531 141.05 414.857C142.363 416.184 144.143 416.929 146 416.929H230C231.857 416.929 233.637 416.184 234.95 414.857C236.263 413.531 237 411.733 237 409.857V385.107L210.561 371.339C209.905 371.007 209.161 370.892 208.436 371.01C207.712 371.128 207.042 371.473 206.522 371.997L180.552 398.232L161.932 385.701C161.26 385.249 160.453 385.046 159.65 385.126C158.846 385.205 158.094 385.564 157.522 386.14L139 402.786ZM174 356.821C174 354.008 172.894 351.31 170.925 349.321C168.955 347.332 166.285 346.214 163.5 346.214C160.715 346.214 158.045 347.332 156.075 349.321C154.106 351.31 153 354.008 153 356.821C153 359.635 154.106 362.333 156.075 364.322C158.045 366.311 160.715 367.429 163.5 367.429C166.285 367.429 168.955 366.311 170.925 364.322C172.894 362.333 174 359.635 174 356.821Z" fill="#D9D9D9"/>
<path id="Vector_3" d="M132 466.143C132 462.392 133.475 458.795 136.101 456.142C138.726 453.49 142.287 452 146 452H230C233.713 452 237.274 453.49 239.899 456.142C242.525 458.795 244 462.392 244 466.143V536.857C244 540.608 242.525 544.205 239.899 546.858C237.274 549.51 233.713 551 230 551H146C142.287 551 138.726 549.51 136.101 546.858C133.475 544.205 132 540.608 132 536.857V466.143ZM139 529.786V536.857C139 538.733 139.737 540.531 141.05 541.857C142.363 543.184 144.143 543.929 146 543.929H230C231.857 543.929 233.637 543.184 234.95 541.857C236.263 540.531 237 538.733 237 536.857V512.107L210.561 498.339C209.905 498.007 209.161 497.892 208.436 498.01C207.712 498.128 207.042 498.473 206.522 498.997L180.552 525.232L161.932 512.701C161.26 512.249 160.453 512.046 159.65 512.126C158.846 512.205 158.094 512.564 157.522 513.14L139 529.786ZM174 483.821C174 481.008 172.894 478.31 170.925 476.321C168.955 474.332 166.285 473.214 163.5 473.214C160.715 473.214 158.045 474.332 156.075 476.321C154.106 478.31 153 481.008 153 483.821C153 486.635 154.106 489.333 156.075 491.322C158.045 493.311 160.715 494.429 163.5 494.429C166.285 494.429 168.955 493.311 170.925 491.322C172.894 489.333 174 486.635 174 483.821Z" fill="#D9D9D9"/>
<path id="Vector_4" d="M277 339.143C277 335.392 278.475 331.795 281.101 329.142C283.726 326.49 287.287 325 291 325H375C378.713 325 382.274 326.49 384.899 329.142C387.525 331.795 389 335.392 389 339.143V409.857C389 413.608 387.525 417.205 384.899 419.858C382.274 422.51 378.713 424 375 424H291C287.287 424 283.726 422.51 281.101 419.858C278.475 417.205 277 413.608 277 409.857V339.143ZM284 402.786V409.857C284 411.733 284.737 413.531 286.05 414.857C287.363 416.184 289.143 416.929 291 416.929H375C376.857 416.929 378.637 416.184 379.95 414.857C381.263 413.531 382 411.733 382 409.857V385.107L355.561 371.339C354.905 371.007 354.161 370.892 353.436 371.01C352.712 371.128 352.042 371.473 351.522 371.997L325.552 398.232L306.932 385.701C306.26 385.249 305.453 385.046 304.65 385.126C303.846 385.205 303.094 385.564 302.522 386.14L284 402.786ZM319 356.821C319 354.008 317.894 351.31 315.925 349.321C313.955 347.332 311.285 346.214 308.5 346.214C305.715 346.214 303.045 347.332 301.075 349.321C299.106 351.31 298 354.008 298 356.821C298 359.635 299.106 362.333 301.075 364.322C303.045 366.311 305.715 367.429 308.5 367.429C311.285 367.429 313.955 366.311 315.925 364.322C317.894 362.333 319 359.635 319 356.821Z" fill="#D9D9D9"/>
<path id="Vector_5" d="M277 466.143C277 462.392 278.475 458.795 281.101 456.142C283.726 453.49 287.287 452 291 452H375C378.713 452 382.274 453.49 384.899 456.142C387.525 458.795 389 462.392 389 466.143V536.857C389 540.608 387.525 544.205 384.899 546.858C382.274 549.51 378.713 551 375 551H291C287.287 551 283.726 549.51 281.101 546.858C278.475 544.205 277 540.608 277 536.857V466.143ZM284 529.786V536.857C284 538.733 284.737 540.531 286.05 541.857C287.363 543.184 289.143 543.929 291 543.929H375C376.857 543.929 378.637 543.184 379.95 541.857C381.263 540.531 382 538.733 382 536.857V512.107L355.561 498.339C354.905 498.007 354.161 497.892 353.436 498.01C352.712 498.128 352.042 498.473 351.522 498.997L325.552 525.232L306.932 512.701C306.26 512.249 305.453 512.046 304.65 512.126C303.846 512.205 303.094 512.564 302.522 513.14L284 529.786ZM319 483.821C319 481.008 317.894 478.31 315.925 476.321C313.955 474.332 311.285 473.214 308.5 473.214C305.715 473.214 303.045 474.332 301.075 476.321C299.106 478.31 298 481.008 298 483.821C298 486.635 299.106 489.333 301.075 491.322C303.045 493.311 305.715 494.429 308.5 494.429C311.285 494.429 313.955 493.311 315.925 491.322C317.894 489.333 319 486.635 319 483.821Z" fill="#D9D9D9"/>
</g>
<g id="bolt">
<g id="bolt5">
<circle id="Ellipse 5" cx="384.5" cy="451.5" r="19.5" fill="#53E64B"/>
<path id="Vector_6" d="M391.826 448.386H387.016L391.341 443.266C391.431 443.158 391.35 443 391.203 443H382.831C382.77 443 382.711 443.031 382.681 443.082L377.024 452.235C376.956 452.344 377.039 452.481 377.175 452.481H380.982L379.03 459.796C378.989 459.955 379.194 460.068 379.321 459.953L391.946 448.666C392.059 448.566 391.983 448.386 391.826 448.386Z" fill="white"/>
</g>
<g id="bolt4">
<circle id="Ellipse 4" cx="238.5" cy="451.5" r="19.5" fill="#53E64B"/>
<path id="Vector_7" d="M245.826 448.386H241.016L245.341 443.266C245.431 443.158 245.35 443 245.203 443H236.831C236.77 443 236.711 443.031 236.681 443.082L231.024 452.235C230.956 452.344 231.039 452.481 231.175 452.481H234.982L233.03 459.796C232.989 459.955 233.194 460.068 233.321 459.953L245.946 448.666C246.059 448.566 245.983 448.386 245.826 448.386Z" fill="white"/>
</g>
<g id="bolt3">
<circle id="Ellipse 3" cx="384.5" cy="333.5" r="19.5" fill="#53E64B"/>
<path id="Vector_8" d="M391.826 330.386H387.016L391.341 325.266C391.431 325.158 391.35 325 391.203 325H382.831C382.77 325 382.711 325.031 382.681 325.082L377.024 334.235C376.956 334.344 377.039 334.481 377.175 334.481H380.982L379.03 341.796C378.989 341.955 379.194 342.068 379.321 341.953L391.946 330.666C392.059 330.566 391.983 330.386 391.826 330.386Z" fill="white"/>
</g>
<g id="bolt2">
<circle id="Ellipse 2" cx="238.5" cy="333.5" r="19.5" fill="#53E64B"/>
<path id="Vector_9" d="M245.826 330.386H241.016L245.341 325.266C245.431 325.158 245.35 325 245.203 325H236.831C236.77 325 236.711 325.031 236.681 325.082L231.024 334.235C230.956 334.344 231.039 334.481 231.175 334.481H234.982L233.03 341.796C232.989 341.955 233.194 342.068 233.321 341.953L245.946 330.666C246.059 330.566 245.983 330.386 245.826 330.386Z" fill="white"/>
</g>
<g id="bolt1">
<rect id="Rectangle 8" x="184" y="247" width="154" height="36" rx="18" fill="#53E64B"/>
<path id="Vector_10" d="M268.826 262.386H264.016L268.341 257.266C268.431 257.158 268.35 257 268.203 257H259.831C259.77 257 259.711 257.031 259.681 257.082L254.024 266.235C253.956 266.344 254.039 266.481 254.175 266.481H257.982L256.03 273.796C255.989 273.955 256.194 274.068 256.321 273.953L268.946 262.666C269.059 262.566 268.983 262.386 268.826 262.386Z" fill="white"/>
</g>
</g>
</g>
<defs>
<filter id="filter0_d_7_11" x="12" y="7" width="510" height="706" filterUnits="userSpaceOnUse" color-interpolation-filters="sRGB">
<feFlood flood-opacity="0" result="BackgroundImageFix"/>
<feColorMatrix in="SourceAlpha" type="matrix" values="0 0 0 0 0 0 0 0 0 0 0 0 0 0 0 0 0 0 127 0" result="hardAlpha"/>
<feOffset dy="16"/>
<feGaussianBlur stdDeviation="35"/>
<feComposite in2="hardAlpha" operator="out"/>
<feColorMatrix type="matrix" values="0 0 0 0 0 0 0 0 0 0 0 0 0 0 0 0 0 0 0.08 0"/>
<feBlend mode="normal" in2="BackgroundImageFix" result="effect1_dropShadow_7_11"/>
<feBlend mode="normal" in="SourceGraphic" in2="effect1_dropShadow_7_11" result="shape"/>
</filter>
<clipPath id="clip0_7_11">
<rect width="521" height="765" fill="white"/>
</clipPath>
</defs>
</svg>
