<svg width="361" height="292" viewBox="0 0 361 292" fill="none" xmlns="http://www.w3.org/2000/svg">
<g id="triangles">
<g id="lightGroup" opacity="0.7">
<path id="light1" d="M125 146.964C127.667 145.425 127.667 141.575 125 140.036L38.75 90.2394C36.0833 88.6998 32.75 90.6243 32.75 93.7035V193.296C32.75 196.376 36.0833 198.3 38.75 196.761L125 146.964Z" fill="#80E9FF"/>
</g>
<g id="darkGroup" opacity="0.7">
<path id="dark2" d="M125 146.964C127.667 145.425 127.667 141.575 125 140.036L38.75 90.2394C36.0833 88.6998 32.75 90.6243 32.75 93.7035V193.296C32.75 196.376 36.0833 198.3 38.75 196.761L125 146.964Z" fill="#635BFF"/>
<path id="dark1" d="M168 146.964C170.667 145.425 170.667 141.575 168 140.036L81.75 90.2394C79.0833 88.6998 75.75 90.6243 75.75 93.7035V193.296C75.75 196.376 79.0833 198.3 81.75 196.761L168 146.964Z" fill="#635BFF"/>
</g>
</g>
</svg>
